<svg xmlns="http://www.w3.org/2000/svg" viewBox="0 0 24 30" fill="none" x="0px" y="0px"><path d="M4 5C4 4.44772 4.44772 4 5 4H19C19.5523 4 20 4.44772 20 5V11C20 11.5523 20.4477 12 21 12C21.5523 12 22 11.5523 22 11V5C22 3.34315 20.6569 2 19 2H5C3.34315 2 2 3.34315 2 5V19C2 20.6569 3.34315 22 5 22H15C15.5523 22 16 21.5523 16 21C16 20.4477 15.5523 20 15 20H5C4.90914 20 4.82111 19.9879 4.73744 19.9652L9.12281 13.5865L12.523 17.1866C12.9022 17.5881 13.5351 17.6062 13.9366 17.227C14.3381 16.8478 14.3562 16.2149 13.977 15.8134L9.72698 11.3134C9.51956 11.0937 9.22397 10.9797 8.92277 11.003C8.62158 11.0263 8.34707 11.1845 8.17593 11.4335L4 17.5075V5Z" fill="black"/><path d="M21 18C21.5523 18 22 17.5523 22 17C22 16.4477 21.5523 16 21 16H17C16.4477 16 16 16.4477 16 17C16 17.5523 16.4477 18 17 18H21Z" fill="black"/><path d="M9 5C10.1046 5 11 5.89543 11 7C11 8.10457 10.1046 9 9 9C7.89543 9 7 8.10457 7 7C7 5.89543 7.89543 5 9 5Z" fill="black"/><text x="0" y="39" fill="#000000" font-size="5px" font-weight="bold" font-family="'Helvetica Neue', Helvetica, Arial-Unicode, Arial, Sans-serif">Created by HideMaru</text><text x="0" y="44" fill="#000000" font-size="5px" font-weight="bold" font-family="'Helvetica Neue', Helvetica, Arial-Unicode, Arial, Sans-serif">from the Noun Project</text></svg>